<?xml version="1.0" standalone="no"?>
<!DOCTYPE svg PUBLIC "-//W3C//DTD SVG 20010904//EN"
 "http://www.w3.org/TR/2001/REC-SVG-20010904/DTD/svg10.dtd">
<svg version="1.0" xmlns="http://www.w3.org/2000/svg"
 width="516.000000pt" height="516.000000pt" viewBox="0 0 516.000000 516.000000"
 preserveAspectRatio="xMidYMid meet">
<metadata>
Created by potrace 1.11, written by Peter Selinger 2001-2013
</metadata>
<g transform="translate(0.000000,516.000000) scale(0.100000,-0.100000)"
fill="#000000" stroke="none">
<path d="M4910 4674 c-390 -202 -380 -197 -585 -333 -134 -89 -422 -309 -555
-425 -20 -17 -60 -51 -90 -76 -30 -25 -83 -72 -118 -105 -35 -33 -68 -62 -73
-63 -5 -2 -75 -81 -155 -175 -81 -95 -167 -196 -192 -225 -25 -30 -83 -102
-129 -160 -46 -59 -89 -114 -96 -122 -152 -186 -405 -545 -528 -748 -24 -40
-51 -84 -59 -97 -14 -23 -125 -212 -176 -299 l-22 -38 -41 60 c-22 33 -59 102
-81 154 -51 116 -54 123 -78 178 -11 25 -36 90 -57 145 -20 55 -47 127 -60
160 -13 33 -42 110 -65 170 -67 176 -90 207 -165 220 -25 4 -66 -19 -265 -144
-129 -81 -280 -172 -335 -201 -55 -29 -127 -67 -160 -85 -33 -18 -99 -53 -146
-78 -48 -25 -165 -92 -260 -150 -96 -57 -206 -123 -246 -146 -61 -35 -75 -48
-93 -88 -11 -25 -19 -47 -18 -48 2 -1 111 -59 243 -130 132 -70 269 -144 305
-163 61 -33 92 -52 230 -140 30 -20 105 -67 165 -105 61 -38 124 -81 141 -96
17 -14 46 -38 65 -53 19 -15 48 -38 64 -51 17 -14 55 -44 85 -69 165 -132 235
-190 334 -277 135 -119 289 -265 422 -399 l102 -103 32 19 c17 11 50 44 71 73
22 30 48 63 57 74 9 11 30 38 46 60 16 22 32 42 35 45 3 3 25 30 48 60 23 30
55 69 70 86 15 17 42 46 58 65 56 63 190 213 210 234 56 59 126 146 246 305
119 157 204 266 219 280 3 3 44 52 92 110 105 128 359 382 488 486 52 42 120
98 150 124 62 53 140 108 185 132 17 8 71 39 120 68 136 80 140 82 291 168 77
44 178 97 225 118 81 37 219 120 219 133 0 3 -13 51 -29 106 -70 240 -79 272
-87 310 -4 22 -9 47 -11 55 -14 56 -18 102 -18 230 0 139 10 293 19 308 2 4 7
23 10 42 3 19 12 69 21 110 9 41 18 84 21 95 2 11 6 31 9 45 4 14 8 36 11 50
3 14 7 32 9 40 2 8 7 31 10 50 3 19 10 59 15 89 12 64 13 211 3 211 -5 -1 -73
-35 -153 -76z"/>
</g>
</svg>
